<svg width="24" height="24" viewBox="0 0 24 24" fill="none" xmlns="http://www.w3.org/2000/svg">
<g id="cup">
<path id="Path 8" fill-rule="evenodd" clip-rule="evenodd" d="M6 2V11C6 14.3137 8.68629 17 12 17V17C15.3137 17 18 14.3137 18 11V2H6Z" stroke="#2329D6" stroke-linecap="round"/>
<path id="Path 42" d="M7 21H17" stroke="#2329D6" stroke-linecap="round"/>
<path id="Path 43" d="M12 17V21" stroke="#2329D6"/>
<path id="Path 8_2" fill-rule="evenodd" clip-rule="evenodd" d="M6 5H5C3.34315 5 2 6.34315 2 8V8C2 9.65685 3.34315 11 5 11H6L6 5Z" stroke="#2329D6" stroke-linecap="round"/>
<path id="Path 8_3" fill-rule="evenodd" clip-rule="evenodd" d="M18 11H19C20.6569 11 22 9.65685 22 8V8C22 6.34315 20.6569 5 19 5H18V11Z" stroke="#2329D6" stroke-linecap="round"/>
</g>
</svg>
