<svg width="34" height="34" viewBox="0 0 34 34" fill="none" xmlns="http://www.w3.org/2000/svg">
<path d="M30.5013 20.4988L27.625 17.6225V13.8125C27.6216 11.1796 26.642 8.64143 24.8757 6.68885C23.1095 4.73628 20.6819 3.50798 18.0625 3.24148V1.0625H15.9375V3.24148C13.3181 3.50798 10.8905 4.73628 9.12425 6.68885C7.35797 8.64143 6.37841 11.1796 6.375 13.8125V17.6225L3.49871 20.4988C3.29947 20.698 3.18753 20.9682 3.1875 21.25V24.4375C3.1875 24.7193 3.29944 24.9895 3.4987 25.1888C3.69796 25.3881 3.96821 25.5 4.25 25.5H11.6875V26.3253C11.6645 27.6732 12.1396 28.9822 13.0219 30.0014C13.9041 31.0207 15.1315 31.6786 16.4688 31.849C17.2073 31.9223 17.9531 31.8402 18.6581 31.6079C19.363 31.3757 20.0115 30.9985 20.562 30.5006C21.1124 30.0026 21.5525 29.395 21.854 28.7168C22.1555 28.0385 22.3116 27.3047 22.3125 26.5625V25.5H29.75C30.0318 25.5 30.302 25.3881 30.5013 25.1888C30.7006 24.9895 30.8125 24.7193 30.8125 24.4375V21.25C30.8125 20.9682 30.7005 20.698 30.5013 20.4988ZM20.1875 26.5625C20.1875 27.4079 19.8517 28.2186 19.2539 28.8164C18.6561 29.4142 17.8454 29.75 17 29.75C16.1546 29.75 15.3439 29.4142 14.7461 28.8164C14.1483 28.2186 13.8125 27.4079 13.8125 26.5625V25.5H20.1875V26.5625ZM28.6875 23.375H5.3125V21.69L8.18869 18.8137C8.38796 18.6145 8.49994 18.3443 8.5 18.0625V13.8125C8.5 11.5582 9.39553 9.39615 10.9896 7.80209C12.5837 6.20803 14.7457 5.3125 17 5.3125C19.2543 5.3125 21.4163 6.20803 23.0104 7.80209C24.6045 9.39615 25.5 11.5582 25.5 13.8125V18.0625C25.5001 18.3443 25.612 18.6145 25.8113 18.8137L28.6875 21.69V23.375Z" fill="#BDBDBD"/>
</svg>
